<svg width="16" height="16" viewBox="0 0 16 16" fill="none" xmlns="http://www.w3.org/2000/svg">
<circle cx="8" cy="8" r="8" fill="white"/>
<path fill-rule="evenodd" clip-rule="evenodd" d="M9.66658 8C9.43658 8 9.24992 7.81333 9.24992 7.58333C9.24992 7.35333 9.43658 7.16667 9.66658 7.16667C9.89658 7.16667 10.0833 7.35333 10.0833 7.58333C10.0833 7.81333 9.89658 8 9.66658 8ZM7.99992 8C7.76992 8 7.58325 7.81333 7.58325 7.58333C7.58325 7.35333 7.76992 7.16667 7.99992 7.16667C8.22992 7.16667 8.41659 7.35333 8.41659 7.58333C8.41659 7.81333 8.22992 8 7.99992 8ZM6.33325 8C6.10325 8 5.91658 7.81333 5.91658 7.58333C5.91658 7.35333 6.10325 7.16667 6.33325 7.16667C6.56325 7.16667 6.74992 7.35333 6.74992 7.58333C6.74992 7.81333 6.56325 8 6.33325 8ZM10.9166 4.25H5.08325C4.39409 4.25 3.83325 4.81083 3.83325 5.5V11.75C3.83325 11.9 3.91409 12.0388 4.0445 12.1125C4.10825 12.1488 4.17909 12.1667 4.24992 12.1667C4.32409 12.1667 4.39825 12.1471 4.4645 12.1071L6.3495 10.9763C6.4145 10.9371 6.48867 10.9167 6.56409 10.9167H10.9166C11.6058 10.9167 12.1666 10.3558 12.1666 9.66667V5.5C12.1666 4.81083 11.6058 4.25 10.9166 4.25Z" fill="#231F20"/>
<mask id="mask0" mask-type="alpha" maskUnits="userSpaceOnUse" x="3" y="4" width="10" height="9">
<path fill-rule="evenodd" clip-rule="evenodd" d="M9.66658 8C9.43658 8 9.24992 7.81333 9.24992 7.58333C9.24992 7.35333 9.43658 7.16667 9.66658 7.16667C9.89658 7.16667 10.0833 7.35333 10.0833 7.58333C10.0833 7.81333 9.89658 8 9.66658 8ZM7.99992 8C7.76992 8 7.58325 7.81333 7.58325 7.58333C7.58325 7.35333 7.76992 7.16667 7.99992 7.16667C8.22992 7.16667 8.41659 7.35333 8.41659 7.58333C8.41659 7.81333 8.22992 8 7.99992 8ZM6.33325 8C6.10325 8 5.91658 7.81333 5.91658 7.58333C5.91658 7.35333 6.10325 7.16667 6.33325 7.16667C6.56325 7.16667 6.74992 7.35333 6.74992 7.58333C6.74992 7.81333 6.56325 8 6.33325 8ZM10.9166 4.25H5.08325C4.39409 4.25 3.83325 4.81083 3.83325 5.5V11.75C3.83325 11.9 3.91409 12.0388 4.0445 12.1125C4.10825 12.1488 4.17909 12.1667 4.24992 12.1667C4.32409 12.1667 4.39825 12.1471 4.4645 12.1071L6.3495 10.9763C6.4145 10.9371 6.48867 10.9167 6.56409 10.9167H10.9166C11.6058 10.9167 12.1666 10.3558 12.1666 9.66667V5.5C12.1666 4.81083 11.6058 4.25 10.9166 4.25Z" fill="white"/>
</mask>
<g mask="url(#mask0)">
<rect x="3" y="3" width="10" height="10" fill="#50D86A"/>
</g>
</svg>
