<svg width="16" height="16" viewBox="0 0 16 16" fill="none" xmlns="http://www.w3.org/2000/svg">
<circle cx="8" cy="8" r="8" fill="white"/>
<path fill-rule="evenodd" clip-rule="evenodd" d="M6.74992 7.58333C7.66909 7.58333 8.41659 6.83583 8.41659 5.91667C8.41659 4.9975 7.66909 4.25 6.74992 4.25C5.83075 4.25 5.08325 4.9975 5.08325 5.91667C5.08325 6.83583 5.83075 7.58333 6.74992 7.58333ZM10.0833 8.41667C10.7724 8.41667 11.3333 7.85583 11.3333 7.16667C11.3333 6.4775 10.7724 5.91667 10.0833 5.91667C9.39408 5.91667 8.83325 6.4775 8.83325 7.16667C8.83325 7.85583 9.39408 8.41667 10.0833 8.41667ZM12.1666 10.9167C12.1666 11.1467 11.9803 11.3333 11.7499 11.3333H9.66659C9.66659 11.5633 9.48034 11.75 9.24992 11.75H4.24992C4.0195 11.75 3.83325 11.5633 3.83325 11.3333C3.83325 9.725 5.142 8.41667 6.74992 8.41667C7.55284 8.41667 8.28034 8.74292 8.80825 9.26917C9.17034 8.98917 9.61617 8.83333 10.0833 8.83333C11.232 8.83333 12.1666 9.76792 12.1666 10.9167Z" fill="white"/>
<mask id="mask0" mask-type="alpha" maskUnits="userSpaceOnUse" x="3" y="4" width="10" height="8">
<path fill-rule="evenodd" clip-rule="evenodd" d="M6.74992 7.58333C7.66909 7.58333 8.41659 6.83583 8.41659 5.91667C8.41659 4.9975 7.66909 4.25 6.74992 4.25C5.83075 4.25 5.08325 4.9975 5.08325 5.91667C5.08325 6.83583 5.83075 7.58333 6.74992 7.58333ZM10.0833 8.41667C10.7724 8.41667 11.3333 7.85583 11.3333 7.16667C11.3333 6.4775 10.7724 5.91667 10.0833 5.91667C9.39408 5.91667 8.83325 6.4775 8.83325 7.16667C8.83325 7.85583 9.39408 8.41667 10.0833 8.41667ZM12.1666 10.9167C12.1666 11.1467 11.9803 11.3333 11.7499 11.3333H9.66659C9.66659 11.5633 9.48034 11.75 9.24992 11.75H4.24992C4.0195 11.75 3.83325 11.5633 3.83325 11.3333C3.83325 9.725 5.142 8.41667 6.74992 8.41667C7.55284 8.41667 8.28034 8.74292 8.80825 9.26917C9.17034 8.98917 9.61617 8.83333 10.0833 8.83333C11.232 8.83333 12.1666 9.76792 12.1666 10.9167Z" fill="white"/>
</mask>
<g mask="url(#mask0)">
<rect x="3" y="3" width="10" height="10" fill="#A86CE4"/>
</g>
</svg>
