<svg width="16" height="16" viewBox="0 0 16 16" fill="none" xmlns="http://www.w3.org/2000/svg">
<circle cx="8" cy="8" r="8" fill="white"/>
<path fill-rule="evenodd" clip-rule="evenodd" d="M8.00002 11.7498C7.88919 11.7498 7.78335 11.7061 7.70502 11.6273L4.46877 8.38567C3.62044 7.53567 3.62044 6.15275 4.46877 5.30275C4.87835 4.89275 5.42544 4.6665 6.00835 4.6665C6.59127 4.6665 7.13835 4.89275 7.54794 5.30275L8.00002 5.75567L8.45169 5.30317C8.86169 4.89275 9.40877 4.6665 9.99169 4.6665C10.5746 4.6665 11.1217 4.89275 11.5313 5.30275C12.3796 6.15275 12.3796 7.53567 11.5317 8.38567L8.29502 11.6278C8.21669 11.7061 8.11085 11.7498 8.00002 11.7498Z" fill="#231F20"/>
<mask id="mask0" mask-type="alpha" maskUnits="userSpaceOnUse" x="3" y="4" width="10" height="8">
<path fill-rule="evenodd" clip-rule="evenodd" d="M8.00002 11.7498C7.88919 11.7498 7.78335 11.7061 7.70502 11.6273L4.46877 8.38567C3.62044 7.53567 3.62044 6.15275 4.46877 5.30275C4.87835 4.89275 5.42544 4.6665 6.00835 4.6665C6.59127 4.6665 7.13835 4.89275 7.54794 5.30275L8.00002 5.75567L8.45169 5.30317C8.86169 4.89275 9.40877 4.6665 9.99169 4.6665C10.5746 4.6665 11.1217 4.89275 11.5313 5.30275C12.3796 6.15275 12.3796 7.53567 11.5317 8.38567L8.29502 11.6278C8.21669 11.7061 8.11085 11.7498 8.00002 11.7498Z" fill="white"/>
</mask>
<g mask="url(#mask0)">
<rect x="3" y="3" width="10" height="10" fill="#E24444"/>
</g>
</svg>
