<svg width="16" height="16" viewBox="0 0 16 16" fill="none" xmlns="http://www.w3.org/2000/svg">
<circle cx="8" cy="8" r="8" fill="white"/>
<path fill-rule="evenodd" clip-rule="evenodd" d="M7.99992 7.37498C7.65534 7.37498 7.37492 7.6554 7.37492 7.99998C7.37492 8.34456 7.65534 8.62498 7.99992 8.62498C8.3445 8.62498 8.62492 8.34456 8.62492 7.99998C8.62492 7.6554 8.3445 7.37498 7.99992 7.37498ZM7.99992 9.45831C7.19575 9.45831 6.54158 8.80415 6.54158 7.99998C6.54158 7.19581 7.19575 6.54165 7.99992 6.54165C8.80408 6.54165 9.45825 7.19581 9.45825 7.99998C9.45825 8.80415 8.80408 9.45831 7.99992 9.45831ZM12.1116 7.79247C11.8453 7.32914 10.3774 5.00664 7.887 5.08456C5.58409 5.14331 4.24409 7.17247 3.88825 7.79247C3.81492 7.92122 3.81492 8.07872 3.88825 8.20747C4.15075 8.66456 5.56742 10.9166 8.01034 10.9166C8.04409 10.9166 8.07825 10.9162 8.11284 10.9154C10.4158 10.8566 11.7558 8.82747 12.1116 8.20747C12.1849 8.07872 12.1849 7.92122 12.1116 7.79247Z" fill="white"/>
<mask id="mask0" mask-type="alpha" maskUnits="userSpaceOnUse" x="3" y="5" width="10" height="6">
<path fill-rule="evenodd" clip-rule="evenodd" d="M7.99992 7.37498C7.65534 7.37498 7.37492 7.6554 7.37492 7.99998C7.37492 8.34456 7.65534 8.62498 7.99992 8.62498C8.3445 8.62498 8.62492 8.34456 8.62492 7.99998C8.62492 7.6554 8.3445 7.37498 7.99992 7.37498ZM7.99992 9.45831C7.19575 9.45831 6.54158 8.80415 6.54158 7.99998C6.54158 7.19581 7.19575 6.54165 7.99992 6.54165C8.80408 6.54165 9.45825 7.19581 9.45825 7.99998C9.45825 8.80415 8.80408 9.45831 7.99992 9.45831ZM12.1116 7.79247C11.8453 7.32914 10.3774 5.00664 7.887 5.08456C5.58409 5.14331 4.24409 7.17247 3.88825 7.79247C3.81492 7.92122 3.81492 8.07872 3.88825 8.20747C4.15075 8.66456 5.56742 10.9166 8.01034 10.9166C8.04409 10.9166 8.07825 10.9162 8.11284 10.9154C10.4158 10.8566 11.7558 8.82747 12.1116 8.20747C12.1849 8.07872 12.1849 7.92122 12.1116 7.79247Z" fill="white"/>
</mask>
<g mask="url(#mask0)">
<rect x="3" y="3" width="10" height="10" fill="#FFA10B"/>
</g>
</svg>
